<svg><g class="layer"><path d="M461.5 32.4a85.2 85.2 0 0 0-43.6 25.5A141.1 141.1 0 0 0 390 97c-47.7 95.4-31.6 252.8 35.3 343a210.6 210.6 0 0 0 35.7 36.6c35.4 26.7 75.2 28.1 107.1 3.8 32.7-25 55.1-73.2 63.6-136.9 2.1-16.4 2.5-67.2.5-84-8.2-70.2-29.1-128.3-61.8-172.2a223.7 223.7 0 0 0-34.4-35 139.5 139.5 0 0 0-36.5-18.8c-8.3-2.3-30.2-2.9-38-1.1zM854.6 52.6c-31.1 6.1-63.6 29.9-90.5 66.1-34.6 46.5-58 108-66.8 175.8-2.8 21.6-2.5 69.8.5 89.4 7 44.7 21.9 78.9 44.2 101.1a80.9 80.9 0 0 0 67.5 25.2c58.1-7.2 115.4-70.6 146-161.6 25.4-75.5 28.1-155 7.3-215.6-20.3-59.1-61.5-89.7-108.2-80.4zM209.5 379c-40.9 6.5-71.7 39.5-85.6 91.9-7.9 30.1-9 71.6-2.8 108.1 14.3 85 63.5 163.1 121.7 193.3 29.8 15.4 59.5 18.1 85 7.5 37.6-15.6 62.3-56 70.4-115.3 1.6-11.9 1.6-47.2-.1-61-13-110.2-80.9-206.9-156.4-223-8.9-1.9-24.7-2.6-32.2-1.5zM1057 460c-36 7.7-71.3 33-100.6 72.2A322.4 322.4 0 0 0 897 686.4c-1.6 14.6-1.3 46 .5 60.1 12.2 94.8 76.6 140.3 149.5 105.9 39.1-18.5 74.5-56.6 99.8-107.3 48-96 44.9-208.5-7.3-260.6-22-22-52.3-31-82.5-24.5zM622.5 637.9c-66.2 11.8-149.7 81.3-223.7 186.1-57.9 82.1-98.7 170.5-110.9 240.5a208.1 208.1 0 0 0-.6 58.3 75.7 75.7 0 0 0 24.4 42.2 147.3 147.3 0 0 0 83 37.6c17.5 2.4 52.9 1.5 75.4-1.9 30.1-4.7 55.5-10.8 112.4-27.2 55-15.8 70.4-19.1 85.6-18.1 19.3 1.3 33.8 6 75.4 24.3a383.6 383.6 0 0 0 60.6 22.8c53 12.8 97.6-3.9 143.5-53.7 13.7-14.8 17.9-22 22.2-37.7 2.4-9 2.6-11 2.6-32.1 0-19.1-.3-24.5-2.3-35.5-11.8-66.7-46.9-147.3-97.6-224-60.3-91.2-131.1-156.9-190.2-176.4a117 117 0 0 0-59.8-5.2z"/><path fill="#00000000" stroke="#000" stroke-width="5" d="M172.5 405.5c-14 13-30 40-37 80s-6 92 6 126 36 74 45 87 19 25 38 43 52 34 75 30 45-16 59-36 25-59 25-82-4-53-8-85-34-84-42-104-50-52-62-57-32-15-52-13-47 11-47 11z"/><path fill="#fff" stroke="#000" stroke-dasharray="null" stroke-linecap="null" stroke-linejoin="null" stroke-width="5" d="M621 663s-70 38-108 74-100 108-122 150-60 126-68 158-8 80 6 102 80 46 112 36 104-42 134-50 68-12 100-8 62 24 94 34 96 12 128-8 58-46 46-80-52-116-76-158-60-106-78-130-62-86-76-94-38-20-54-24-38-2-38-2zM459 53c-6 0-26 14-38 38s-30 68-32 94 0 82 12 120 18 86 50 114 32 46 62 46 70-22 78-48 24-114 22-140-12-100-22-124-48-72-56-82-48-28-56-26M889 69s-40 0-72 30-50 56-62 98-30 72-32 130 0 82 26 114 40 32 56 32 72-36 92-66 38-106 44-140 12-104 4-126-18-58-34-62-22-10-22-10zM989 835s-34-10-44-46-18-80-12-116 22-96 40-114 62-70 80-70 42-12 70 26 28 84 26 110-18 72-28 100-28 64-62 88-70 22-70 22z"/></g></svg>