<svg width="138" height="33" viewBox="0 0 138 33" fill="none" xmlns="http://www.w3.org/2000/svg">
<g clip-path="url(#clip0_7_45)">
<path d="M45.1916 1.23214V31.7506C45.1916 32.43 44.6405 32.9827 43.9632 32.9827H36.0304C35.3531 32.9827 34.8021 32.43 34.8021 31.7506V1.23214C34.8021 0.552735 35.3531 0 36.0304 0H43.9632C44.6405 0 45.1916 0.552735 45.1916 1.23214ZM32.7873 31.6008L23.5458 15.7414L32.3051 1.44229C32.727 0.831981 32.2937 0 31.5531 0L21.9242 0.017273C21.62 0.017273 21.333 0.16985 21.1637 0.423188L14.3588 12.022H10.3867V1.23214C10.3867 0.552735 9.83562 0 9.15829 0H1.22838C0.548177 0 0 0.552735 0 1.23214V31.7506C0 32.43 0.551046 32.9827 1.22838 32.9827H9.16116C9.83849 32.9827 10.3895 32.43 10.3895 31.7506V21.0069H15.2226L21.9874 32.548C22.1538 32.8243 22.4523 32.9971 22.7737 32.9971H32.0066C32.7242 32.9971 33.1633 32.2112 32.7873 31.6008ZM136.772 32.9827C137.449 32.9827 138 32.43 138 31.7506V1.23214C138 0.552735 137.449 0 136.772 0H129.126C128.448 0 127.897 0.552735 127.897 1.23214L127.946 16.844L114.067 0.017273H105.25C104.573 0.017273 104.022 0.570008 104.022 1.24941V31.7707C104.022 32.4501 104.57 33 105.247 33H112.876C113.553 33 114.101 32.4501 114.101 31.7707V16.1387L127.84 32.9856L136.772 32.9827ZM100.842 1.36169V31.624C100.842 32.3754 100.233 32.9856 99.4841 32.9856H49.7262C48.9772 32.9856 48.3687 32.3754 48.3687 31.624V1.36169C48.3687 0.610311 48.9772 0 49.7262 0H99.487C100.233 0 100.842 0.610311 100.842 1.36169ZM90.5153 8.7689C90.5153 8.49542 90.2655 8.29103 89.9957 8.34573C84.6202 9.4224 65.5862 9.5865 59.2031 8.33709C58.9391 8.28526 58.6951 8.48967 58.6951 8.76315V23.7359C58.6951 24.0008 58.9277 24.2023 59.1916 24.1649C64.4839 23.379 84.603 23.5085 90.033 24.1822C90.2913 24.2138 90.5153 24.0124 90.5153 23.7532V8.7689Z" fill="#EEEEEE"/>
</g>
<defs>
<clipPath id="clip0_7_45">
<rect width="138" height="33" fill="white"/>
</clipPath>
</defs>
</svg>
