<?xml version="1.0"?>
<svg width="1280" height="1280" xmlns="http://www.w3.org/2000/svg" xmlns:svg="http://www.w3.org/2000/svg" preserveAspectRatio="xMidYMid meet">
 <metadata>Created by potrace 1.15, written by Peter Selinger 2001-2017</metadata>
 <g class="layer">
  <title>Layer 1</title>
  <g fill="#000000" id="svg_1" transform="translate(0 1280) scale(0.1 -0.1)">
   <path d="m4615,12476c-167,-39 -293,-112 -436,-255c-116,-115 -199,-232 -279,-391c-477,-954 -316,-2528 353,-3430c91,-123 249,-285 357,-366c354,-267 752,-281 1071,-38c327,250 551,732 636,1369c21,164 25,672 5,840c-82,702 -291,1283 -618,1722c-82,109 -243,273 -344,350c-94,71 -272,163 -365,188c-83,23 -302,29 -380,11z" id="svg_2"/>
   <path d="m8546,12274c-311,-61 -636,-299 -905,-661c-346,-465 -580,-1080 -668,-1758c-28,-216 -25,-698 5,-894c70,-447 219,-789 442,-1011c191,-192 431,-281 675,-252c581,72 1154,706 1460,1616c254,755 281,1550 73,2156c-203,591 -615,897 -1082,804z" id="svg_3"/>
   <path d="m2095,9010c-409,-65 -717,-395 -856,-919c-79,-301 -90,-716 -28,-1081c143,-850 635,-1631 1217,-1933c298,-154 595,-181 850,-75c376,156 623,560 704,1153c16,119 16,472 -1,610c-130,1102 -809,2069 -1564,2230c-89,19 -247,26 -322,15z" id="svg_4"/>
   <path d="m10570,8200c-360,-77 -713,-330 -1006,-722c-318,-426 -532,-982 -594,-1542c-16,-146 -13,-460 5,-601c122,-948 766,-1403 1495,-1059c391,185 745,566 998,1073c480,960 449,2085 -73,2606c-220,220 -523,310 -825,245z" id="svg_5"/>
   <path d="m6225,6421c-662,-118 -1497,-813 -2237,-1861c-579,-821 -987,-1705 -1109,-2405c-29,-168 -32,-468 -6,-583c41,-179 110,-297 244,-422c224,-207 493,-329 830,-376c175,-24 529,-15 754,19c301,47 555,108 1124,272c550,158 704,191 856,181c193,-13 338,-60 754,-243c298,-131 464,-193 606,-228c530,-128 976,39 1435,537c137,148 179,220 222,377c24,90 26,110 26,321c0,191 -3,245 -23,355c-118,667 -469,1473 -976,2240c-603,912 -1311,1569 -1902,1764c-215,71 -398,87 -598,52z" id="svg_6"/>
  </g>
  <path d="m172.5,405.5c-14,13 -30,40 -37,80c-7,40 -6,92 6,126c12,34 36,74 45,87c9,13 19,25 38,43c19,18 52,34 75,30c23,-4 45,-16 59,-36c14,-20 25,-59 25,-82c0,-23 -4,-53 -8,-85c-4,-32 -34,-84 -42,-104c-8,-20 -50,-52 -62,-57c-12,-5 -32,-15 -52,-13c-20,2 -47,11 -47,11z" fill="#ffffff" id="svg_7" stroke="#000000" stroke-width="5"/>
  <path d="m621,663c0,0 -70,38 -108,74c-38,36 -100,108 -122,150c-22,42 -60,126 -68,158c-8,32 -8,80 6,102c14,22 80,46 112,36c32,-10 104,-42 134,-50c30,-8 68,-12 100,-8c32,4 62,24 94,34c32,10 96,12 128,-8c32,-20 58,-46 46,-80c-12,-34 -52,-116 -76,-158c-24,-42 -60,-106 -78,-130c-18,-24 -62,-86 -76,-94c-14,-8 -38,-20 -54,-24c-16,-4 -38,-2 -38,-2z" fill="#ffffff" id="svg_9" stroke="#000000" stroke-dasharray="null" stroke-linecap="null" stroke-linejoin="null" stroke-width="5"/>
  <path d="m459,53c-6,0 -26,14 -38,38c-12,24 -30,68 -32,94c-2,26 0,82 12,120c12,38 18,86 50,114c32,28 32,46 62,46c30,0 70,-22 78,-48c8,-26 24,-114 22,-140c-2,-26 -12,-100 -22,-124c-10,-24 -48,-72 -56,-82c-8,-10 -48,-28 -56,-26" fill="#ffffff" id="svg_13" stroke="#000000" stroke-dasharray="null" stroke-linecap="null" stroke-linejoin="null" stroke-width="5"/>
  <path d="m889,69c0,0 -40,0 -72,30c-32,30 -50,56 -62,98c-12,42 -30,72 -32,130c-2,58 0,82 26,114c26,32 40,32 56,32c16,0 72,-36 92,-66c20,-30 38,-106 44,-140c6,-34 12,-104 4,-126c-8,-22 -18,-58 -34,-62c-16,-4 -22,-10 -22,-10z" fill="#ffffff" id="svg_15" stroke="#000000" stroke-dasharray="null" stroke-linecap="null" stroke-linejoin="null" stroke-width="5"/>
  <path d="m989,835c0,0 -34,-10 -44,-46c-10,-36 -18,-80 -12,-116c6,-36 22,-96 40,-114c18,-18 62,-70 80,-70c18,0 42,-12 70,26c28,38 28,84 26,110c-2,26 -18,72 -28,100c-10,28 -28,64 -62,88c-34,24 -70,22 -70,22z" fill="#ffffff" id="svg_17" stroke="#000000" stroke-dasharray="null" stroke-linecap="null" stroke-linejoin="null" stroke-width="5"/>
 </g>
</svg>