<svg width="40" height="40" viewBox="0 0 40 40" fill="none" xmlns="http://www.w3.org/2000/svg">
<path d="M20 19.2C21.5822 19.2 23.129 18.7308 24.4446 17.8518C25.7602 16.9727 26.7855 15.7233 27.391 14.2615C27.9965 12.7997 28.155 11.1911 27.8463 9.63929C27.5376 8.08745 26.7757 6.66198 25.6569 5.54316C24.538 4.42434 23.1126 3.66242 21.5607 3.35373C20.0089 3.04505 18.4003 3.20348 16.9385 3.80898C15.4767 4.41448 14.2273 5.43986 13.3482 6.75545C12.4692 8.07105 12 9.61777 12 11.2C12 13.3217 12.8429 15.3566 14.3431 16.8569C15.8434 18.3572 17.8783 19.2 20 19.2ZM20 4.80002C21.2658 4.80002 22.5032 5.17537 23.5556 5.87861C24.6081 6.58185 25.4284 7.58139 25.9128 8.75084C26.3972 9.92029 26.524 11.2071 26.277 12.4486C26.0301 13.6901 25.4205 14.8304 24.5255 15.7255C23.6304 16.6206 22.4901 17.2301 21.2486 17.477C20.0071 17.724 18.7203 17.5972 17.5508 17.1128C16.3814 16.6284 15.3818 15.8081 14.6786 14.7557C13.9754 13.7032 13.6 12.4658 13.6 11.2C13.6 9.50263 14.2743 7.87476 15.4745 6.67453C16.6747 5.4743 18.3026 4.80002 20 4.80002Z" fill="white"/>
<path d="M21.696 20.8H18.304C16.3142 20.8063 14.3452 21.2044 12.5092 21.9717C10.6733 22.739 9.00652 23.8604 7.60398 25.2718C6.20144 26.6833 5.09065 28.3572 4.33502 30.1979C3.57938 32.0386 3.19371 34.0102 3.20003 36C3.20003 36.2122 3.28431 36.4156 3.43434 36.5657C3.58437 36.7157 3.78785 36.8 4.00003 36.8H36C36.2221 36.7798 36.4282 36.676 36.5767 36.5097C36.7252 36.3434 36.805 36.1269 36.8 35.904C36.7916 31.9008 35.1975 28.0639 32.3668 25.2332C29.5361 22.4025 25.6993 20.8084 21.696 20.8ZM4.80003 35.2C4.98803 31.7474 6.49018 28.4976 8.9983 26.1174C11.5064 23.7372 14.8303 22.4071 18.288 22.4H21.68C25.1433 22.399 28.4752 23.7254 30.9901 26.1064C33.5051 28.4874 35.0117 31.7419 35.2 35.2H4.80003Z" fill="white"/>
</svg>
