<?xml version="1.0" standalone="no"?>
<!DOCTYPE svg PUBLIC "-//W3C//DTD SVG 20010904//EN"
 "http://www.w3.org/TR/2001/REC-SVG-20010904/DTD/svg10.dtd">
<svg version="1.0" xmlns="http://www.w3.org/2000/svg"
 width="52pt" height="50pt" viewBox="0 0 1280.000000 1008.000000"
 preserveAspectRatio="xMidYMid meet">
<metadata>
Created by potrace 1.15, written by Peter Selinger 2001-2017
</metadata>
<g transform="translate(0.000000,1008.000000) scale(0.100000,-0.100000)"
fill="#ffffff" stroke="none">
<path d="M5920 10060 c-325 -117 -892 -754 -1138 -1280 -109 -232 -174 -433
-176 -543 -1 -46 3 -71 11 -74 34 -12 154 136 398 492 255 371 355 501 508
662 160 167 376 343 422 343 34 0 83 -61 252 -315 171 -257 266 -392 522 -743
250 -342 408 -578 506 -750 158 -280 166 -293 192 -305 32 -14 51 -2 82 52 84
151 65 403 -48 636 -69 142 -156 267 -555 800 -194 259 -413 555 -487 659
-203 287 -307 387 -400 386 -19 -1 -59 -10 -89 -20z"/>
<path d="M688 9466 c-59 -16 -88 -35 -132 -89 -104 -127 -158 -370 -226 -1027
-61 -595 -83 -1184 -51 -1415 28 -212 91 -404 175 -539 82 -131 209 -261 336
-343 65 -42 247 -116 266 -109 28 11 13 60 -45 155 -87 142 -135 234 -180 347
-82 205 -90 272 -98 859 -8 590 12 1058 62 1490 26 225 42 275 87 275 25 0
217 -63 352 -115 362 -140 752 -312 983 -434 213 -112 323 -188 425 -294 76
-79 89 -88 103 -77 57 47 60 156 7 263 -62 126 -271 292 -597 473 -337 188
-1054 502 -1306 573 -86 24 -96 24 -161 7z"/>
<path d="M5742 9214 c-75 -37 -178 -151 -229 -255 -77 -157 -115 -313 -116
-469 0 -163 36 -245 120 -276 60 -22 98 -49 195 -141 45 -43 85 -73 98 -73 12
0 42 21 69 48 54 54 81 116 101 229 13 69 12 74 -11 119 -27 52 -74 84 -125
84 -16 0 -64 -9 -104 -19 -41 -11 -78 -18 -82 -15 -24 15 -3 65 107 254 139
238 181 343 172 433 -3 41 -11 56 -36 79 -40 36 -89 37 -159 2z"/>
<path d="M1015 8733 c-36 -9 -75 -44 -75 -66 0 -43 68 -121 170 -196 36 -27
148 -97 250 -156 329 -191 450 -269 450 -290 0 -16 -44 -25 -124 -26 -81 -1
-105 -9 -130 -42 -28 -38 -24 -89 10 -139 32 -46 139 -137 211 -179 116 -68
179 -8 153 146 -5 33 -10 65 -10 71 0 7 19 8 58 3 111 -14 187 -11 205 9 42
47 27 132 -46 257 -130 224 -589 542 -867 601 -62 13 -213 17 -255 7z"/>
<path d="M4055 8466 c-63 -38 -95 -90 -158 -253 -45 -117 -98 -200 -132 -209
-54 -13 -78 5 -275 206 -199 204 -234 230 -303 230 -45 0 -115 -38 -149 -80
-17 -21 -33 -60 -40 -93 -11 -51 -10 -71 10 -170 12 -62 29 -159 37 -217 19
-133 37 -194 72 -248 29 -45 65 -62 92 -45 26 16 59 83 77 158 20 82 37 120
59 129 10 3 39 -15 81 -50 115 -98 202 -129 337 -122 126 7 185 43 288 179 33
44 65 79 71 79 18 0 75 -47 191 -157 130 -123 170 -142 252 -124 105 24 140
104 96 220 -26 68 -96 172 -178 262 -38 41 -85 104 -105 140 -49 87 -104 148
-152 170 -58 26 -122 24 -171 -5z"/>
<path d="M5283 7485 c-61 -31 -103 -75 -139 -147 -38 -74 -54 -135 -54 -204 0
-79 22 -143 70 -196 102 -117 323 -165 431 -94 93 62 132 187 106 338 -40 232
-114 317 -282 325 -71 4 -86 2 -132 -22z"/>
<path d="M10475 7390 c-293 -21 -506 -113 -666 -288 -96 -105 -185 -263 -208
-372 -17 -78 -14 -324 4 -395 60 -231 285 -509 606 -750 137 -103 299 -188
360 -189 43 -1 44 0 47 32 4 39 -5 56 -175 320 -193 300 -242 419 -243 588 0
198 75 312 239 361 120 36 326 17 516 -48 92 -31 330 -151 430 -216 196 -128
441 -354 548 -504 94 -133 162 -302 187 -464 25 -160 12 -465 -31 -735 -77
-490 -329 -1137 -680 -1751 -487 -851 -1033 -1478 -1632 -1872 -400 -264 -913
-473 -1302 -531 -335 -50 -947 -41 -1315 19 -315 52 -614 165 -789 297 -83 64
-151 135 -151 159 0 16 76 47 230 94 591 179 1221 527 1705 944 797 686 1228
1504 1191 2261 -17 365 -133 644 -383 925 -235 263 -474 418 -738 480 -79 18
-242 21 -490 10 l-161 -7 -71 83 c-206 243 -397 381 -565 409 -134 23 -298
-10 -408 -80 -74 -48 -155 -140 -179 -205 -33 -87 -29 -185 10 -263 50 -101
131 -154 261 -172 85 -12 141 -3 146 23 2 9 -31 53 -77 102 -120 129 -129 193
-38 253 35 23 51 27 116 27 67 0 83 -4 139 -34 72 -39 190 -158 240 -243 47
-79 62 -145 62 -271 0 -124 11 -158 63 -204 50 -43 103 -50 188 -24 85 27 150
77 180 138 21 42 24 66 27 181 2 72 7 132 12 132 12 0 109 -75 320 -246 477
-387 632 -551 734 -776 56 -125 61 -155 60 -363 -2 -290 -38 -434 -189 -740
-161 -326 -341 -572 -629 -861 -449 -449 -1001 -793 -1593 -993 -394 -133
-738 -188 -1228 -198 -1084 -21 -1911 195 -2505 655 -331 257 -631 686 -768
1098 -72 216 -111 399 -192 894 -45 278 -59 334 -82 338 -33 6 -75 -121 -103
-305 -17 -119 -20 -440 -5 -578 68 -609 261 -1069 624 -1491 174 -203 393
-386 645 -538 474 -288 1125 -480 1816 -536 252 -21 722 -24 935 -6 263 22
284 21 310 -6 11 -12 48 -69 81 -127 142 -245 422 -454 798 -597 394 -151 836
-227 1321 -228 264 0 431 14 680 60 556 102 1095 325 1588 656 558 376 1085
957 1547 1707 502 814 786 1505 899 2186 42 250 51 374 51 670 -1 381 -25 505
-150 761 -292 599 -1040 1180 -1693 1315 -79 16 -334 42 -367 37 -5 0 -55 -4
-110 -8z"/>
<path d="M7975 7270 c-339 -25 -653 -104 -759 -192 -39 -32 -46 -54 -18 -62
48 -15 1837 -34 1890 -20 39 11 26 41 -38 89 -134 98 -247 145 -412 170 -125
19 -496 27 -663 15z"/>
<path d="M2540 7033 c-116 -41 -215 -142 -247 -252 -21 -73 -14 -181 16 -239
31 -60 94 -120 160 -151 48 -22 69 -26 151 -26 85 0 101 3 149 28 69 37 133
103 167 175 39 81 45 212 14 296 -26 69 -77 123 -146 156 -63 31 -196 38 -264
13z"/>
<path d="M8200 6664 c-118 -15 -281 -47 -345 -69 -140 -47 -195 -99 -195 -186
0 -44 16 -69 56 -92 48 -27 255 -48 829 -82 143 -9 314 -20 380 -25 158 -13
447 -13 479 0 41 15 31 40 -41 109 -178 168 -402 279 -660 327 -85 16 -422 28
-503 18z"/>
<path d="M5844 6576 c-59 -27 -77 -67 -114 -270 -42 -233 -104 -323 -275 -406
-160 -78 -325 -112 -535 -112 -184 0 -305 28 -367 85 -35 31 -30 82 19 189 58
127 62 200 18 276 -61 105 -158 141 -350 129 -157 -10 -287 -62 -341 -138 -20
-28 -24 -46 -24 -104 0 -76 -7 -60 100 -211 36 -51 40 -62 40 -118 0 -73 -31
-133 -107 -209 -97 -97 -225 -133 -438 -124 -131 5 -126 4 -380 96 -96 34
-145 39 -154 15 -10 -25 51 -129 110 -187 67 -67 189 -140 307 -185 88 -34 98
-36 247 -40 182 -5 303 12 385 53 29 15 91 58 138 94 47 37 99 74 116 81 43
18 96 8 221 -39 171 -64 245 -76 475 -76 268 1 436 32 653 120 339 138 552
431 552 760 0 196 -80 317 -217 331 -30 3 -60 -1 -79 -10z"/>
<path d="M1235 5789 c-159 -39 -389 -169 -573 -323 -120 -101 -324 -316 -418
-442 -84 -112 -163 -260 -193 -361 -48 -164 -63 -359 -31 -398 12 -14 15 -13
37 7 14 13 100 124 191 248 459 622 645 828 1005 1108 82 63 155 125 163 136
33 48 -44 58 -181 25z"/>
<path d="M2313 5395 c-200 -44 -353 -185 -422 -390 -39 -118 -54 -240 -55
-440 -1 -203 8 -258 56 -362 28 -60 111 -143 175 -174 109 -53 237 -28 277 55
28 58 10 122 -64 229 -118 170 -139 247 -120 442 12 130 32 215 64 270 30 51
49 67 112 99 112 56 261 19 311 -77 10 -20 20 -87 29 -186 8 -85 18 -159 24
-165 15 -15 66 39 94 99 56 116 73 291 40 388 -34 99 -167 191 -315 216 -82
14 -128 13 -206 -4z"/>
<path d="M1445 5226 c-233 -54 -587 -265 -781 -467 -141 -147 -215 -273 -258
-443 -33 -125 -35 -227 -6 -256 16 -16 25 -18 40 -10 28 15 122 103 365 340
250 243 422 399 642 578 175 143 203 172 203 208 0 51 -97 75 -205 50z"/>
<path d="M6772 5139 c-217 -36 -496 -349 -732 -819 -237 -472 -306 -849 -208
-1123 51 -142 141 -157 193 -32 9 22 41 108 72 190 119 321 283 634 495 947
89 132 203 259 247 278 102 42 158 -71 181 -370 8 -92 10 -216 7 -305 -9 -217
-32 -310 -137 -553 -78 -182 -110 -280 -110 -336 0 -105 80 -228 166 -254 100
-30 220 -5 291 61 56 51 105 134 186 312 144 315 177 477 178 877 1 359 -38
564 -141 755 -104 193 -253 328 -405 368 -64 16 -197 18 -283 4z"/>
<path d="M3103 4395 c-82 -18 -155 -59 -215 -118 -95 -94 -127 -208 -108 -380
46 -412 302 -750 835 -1102 278 -184 712 -435 751 -435 49 0 54 35 20 133 -52
147 -130 234 -446 497 -219 182 -433 392 -519 509 -99 134 -173 304 -158 362
4 14 18 31 32 37 63 29 270 7 523 -54 387 -94 531 -187 870 -564 309 -342 371
-390 506 -390 85 0 142 23 179 71 66 89 75 185 26 283 -60 120 -254 352 -460
551 -363 352 -673 506 -1180 586 -175 28 -561 36 -656 14z"/>
</g>
</svg>
